<svg xmlns="http://www.w3.org/2000/svg" viewBox="0 0 120 120" width="120" height="120" role="img" aria-label="jumper"><title>A knitted jumper</title><path d="M40 24 L80 24 L106 38 L96 62 L86 56 L86 102 L34 102 L34 56 L24 62 L14 38 Z" fill="#d2624f"/><path d="M46 24 C46 34 74 34 74 24 C68 20 52 20 46 24 Z" fill="#a8412f"/><rect x="34" y="94" width="52" height="8" rx="3" fill="#a8412f"/><path d="M20 52 L28 60 M100 52 L92 60" stroke="#a8412f" stroke-width="6" stroke-linecap="round" fill="none"/><path d="M40 62 L48 54 L56 62 L64 54 L72 62 L80 54" fill="none" stroke="#d8cdb8" stroke-width="4" stroke-linecap="round" stroke-linejoin="round"/><path d="M40 78 L48 70 L56 78 L64 70 L72 78 L80 70" fill="none" stroke="#d8cdb8" stroke-width="4" stroke-linecap="round" stroke-linejoin="round"/></svg>
