<svg xmlns="http://www.w3.org/2000/svg" viewBox="0 0 120 120" width="120" height="120" role="img" aria-label="ladybug"><title>A ladybird</title><path d="M30 76 L18 88 M30 60 L14 60 M90 76 L102 88 M90 60 L106 60" stroke="#3a2a1e" stroke-width="3" stroke-linecap="round" fill="none"/><circle cx="60" cy="66" r="34" fill="#d2624f"/><path d="M60 32 C42 32 32 46 32 66 L60 66 Z M60 32 C78 32 88 46 88 66 L60 66 Z" fill="#d2624f"/><rect x="57" y="32" width="6" height="68" rx="3" fill="#3a2a1e"/><circle cx="44" cy="56" r="6" fill="#3a2a1e"/><circle cx="76" cy="56" r="6" fill="#3a2a1e"/><circle cx="46" cy="80" r="5.5" fill="#3a2a1e"/><circle cx="74" cy="80" r="5.5" fill="#3a2a1e"/><path d="M60 32 C48 32 40 26 40 20 C40 14 80 14 80 20 C80 26 72 32 60 32 Z" fill="#3a2a1e"/><path d="M50 16 L44 8 M70 16 L76 8" stroke="#3a2a1e" stroke-width="3" stroke-linecap="round" fill="none"/></svg>
