<svg xmlns="http://www.w3.org/2000/svg" viewBox="0 0 120 120" width="120" height="120" role="img" aria-label="night"><title>A night sky</title><rect x="4" y="6" width="112" height="98" rx="10" fill="#2b3a5c"/><path d="M78 22 C68 22 60 30 60 40 C60 50 68 58 78 58 C82 58 86 57 89 55 C80 53 74 47 74 39 C74 31 80 25 89 23 C86 22 82 22 78 22 Z" fill="#f0c05a"/><path d="M28 30 L31 38 L39 38 L33 43 L35 51 L28 46 L21 51 L23 43 L17 38 L25 38 Z" fill="#f5f2ea"/><path d="M46 60 L48 65 L53 65 L49 68 L50 73 L46 70 L42 73 L43 68 L39 65 L44 65 Z" fill="#f5f2ea"/><path d="M94 72 L96 77 L101 77 L97 80 L98 85 L94 82 L90 85 L91 80 L87 77 L92 77 Z" fill="#f5f2ea"/><circle cx="66" cy="24" r="2" fill="#f5f2ea"/><circle cx="22" cy="70" r="2" fill="#f5f2ea"/><circle cx="104" cy="42" r="2" fill="#f5f2ea"/><path d="M4 92 L24 78 L40 90 L58 74 L76 88 L96 76 L116 90 L116 94 C116 100 112 104 106 104 L14 104 C8 104 4 100 4 94 Z" fill="#1b263f"/></svg>
