<svg xmlns="http://www.w3.org/2000/svg" viewBox="0 0 120 120" width="120" height="120" role="img" aria-label="peanut"><title>A peanut in its shell</title><path d="M60 16 C78 16 88 30 84 44 C81 55 81 65 84 76 C88 90 78 104 60 104C42 104 32 90 36 76 C39 65 39 55 36 44 C32 30 42 16 60 16 Z" fill="#c9a36a"/><path d="M40 50 C48 46 72 46 80 50" stroke="#a8834c" stroke-width="2.5" fill="none" stroke-linecap="round"/><path d="M40 70 C48 74 72 74 80 70" stroke="#a8834c" stroke-width="2.5" fill="none" stroke-linecap="round"/><circle cx="52" cy="34" r="2.4" fill="#a8834c"/><circle cx="68" cy="40" r="2.4" fill="#a8834c"/><circle cx="54" cy="86" r="2.4" fill="#a8834c"/><circle cx="70" cy="80" r="2.4" fill="#a8834c"/></svg>
