<svg xmlns="http://www.w3.org/2000/svg" viewBox="0 0 120 120" width="120" height="120" role="img" aria-label="pool"><title>A swimming pool</title><rect x="8" y="34" width="104" height="70" rx="8" fill="#9fb0c4"/><rect x="16" y="42" width="88" height="54" rx="5" fill="#5b8fc9"/><path d="M16 56 C28 50 40 62 52 56 C64 50 76 62 88 56 C96 52 100 56 104 56" fill="none" stroke="#bcd9e8" stroke-width="4" stroke-linecap="round"/><path d="M16 74 C28 68 40 80 52 74 C64 68 76 80 88 74 C96 70 100 74 104 74" fill="none" stroke="#bcd9e8" stroke-width="4" stroke-linecap="round"/><circle cx="30" cy="66" r="5" fill="#f5f2ea"/><circle cx="44" cy="66" r="5" fill="#d2624f"/><circle cx="58" cy="66" r="5" fill="#f5f2ea"/><circle cx="72" cy="66" r="5" fill="#d2624f"/><circle cx="86" cy="66" r="5" fill="#f5f2ea"/><rect x="88" y="26" width="6" height="20" rx="3" fill="#4e6180"/><rect x="100" y="26" width="6" height="20" rx="3" fill="#4e6180"/><path d="M90 30 L104 30" stroke="#4e6180" stroke-width="4" fill="none"/></svg>
